<svg width="18" height="18" viewBox="0 0 18 18" fill="none" xmlns="http://www.w3.org/2000/svg">
<path d="M6 9.75C6.41421 9.75 6.75 9.41421 6.75 9C6.75 8.58579 6.41421 8.25 6 8.25C5.58579 8.25 5.25 8.58579 5.25 9C5.25 9.41421 5.58579 9.75 6 9.75Z" fill="currentColor"/>
<path d="M9.75 9C9.75 9.41421 9.41421 9.75 9 9.75C8.58579 9.75 8.25 9.41421 8.25 9C8.25 8.58579 8.58579 8.25 9 8.25C9.41421 8.25 9.75 8.58579 9.75 9Z" fill="currentColor"/>
<path d="M12 9.75C12.4142 9.75 12.75 9.41421 12.75 9C12.75 8.58579 12.4142 8.25 12 8.25C11.5858 8.25 11.25 8.58579 11.25 9C11.25 9.41421 11.5858 9.75 12 9.75Z" fill="currentColor"/>
<path d="M6.75 12C6.75 12.4142 6.41421 12.75 6 12.75C5.58579 12.75 5.25 12.4142 5.25 12C5.25 11.5858 5.58579 11.25 6 11.25C6.41421 11.25 6.75 11.5858 6.75 12Z" fill="currentColor"/>
<path d="M9 12.75C9.41421 12.75 9.75 12.4142 9.75 12C9.75 11.5858 9.41421 11.25 9 11.25C8.58579 11.25 8.25 11.5858 8.25 12C8.25 12.4142 8.58579 12.75 9 12.75Z" fill="currentColor"/>
<path fill-rule="evenodd" clip-rule="evenodd" d="M6 2.25C6 1.83579 5.66421 1.5 5.25 1.5C4.83579 1.5 4.5 1.83579 4.5 2.25H3C2.17157 2.25 1.5 2.92157 1.5 3.75V14.25C1.5 15.0784 2.17157 15.75 3 15.75H15C15.8284 15.75 16.5 15.0784 16.5 14.25V3.75C16.5 2.92157 15.8284 2.25 15 2.25H13.5C13.5 1.83579 13.1642 1.5 12.75 1.5C12.3358 1.5 12 1.83579 12 2.25H6ZM3 5.25V3.75H15V5.25H3ZM3 6.75V14.25H10.6287L15 9.8787V6.75H3ZM15 12L12.75 14.25H15V12Z" fill="currentColor"/>
</svg>
