<svg width="18" height="18" viewBox="0 0 18 18" fill="none" xmlns="http://www.w3.org/2000/svg">
<path fill-rule="evenodd" clip-rule="evenodd" d="M5.59747 3.9319C6.29201 3.10426 7.50927 2.25 9.19117 2.25C10.0043 2.25 10.6226 2.46538 10.6226 2.46538L10.6177 2.47121L10.6311 2.46533C11.7894 2.83975 12.7825 3.62289 13.3806 4.78103L13.3839 4.78015C13.3839 4.78015 13.9126 5.68402 13.9126 6.98357C13.9126 8.37386 13.3778 9.36848 13.3778 9.36848C12.9933 10.1672 12.1958 11.1487 11.9035 11.5084C11.8628 11.5585 11.8319 11.5965 11.8133 11.6203C11.2579 12.3148 10.6868 13.0384 10.2354 13.8515C10.0067 14.2763 9.86032 14.7203 9.67277 15.3048C9.58202 15.5758 9.46465 15.75 9.20692 15.75C8.97097 15.75 8.85965 15.646 8.74107 15.3048L8.73005 15.271C8.53487 14.6724 8.42271 14.3285 8.15664 13.8237C7.934 13.428 7.5105 12.7746 7.09305 12.2531C6.91665 12.0157 6.71844 11.7697 6.51297 11.5148C5.94894 10.8151 5.3302 10.0475 4.95861 9.20146C4.95861 9.20146 4.5 8.29032 4.5 6.97747C4.5 5.73733 4.98349 4.65475 5.59915 3.94557L5.59747 3.9319ZM7.73564 5.9117L7.82267 5.8086L7.81616 5.80312C7.81648 5.80275 7.81664 5.80257 7.81664 5.80257C7.84002 5.77366 8.34332 5.16364 9.20569 5.16364C10.1374 5.16364 10.9989 5.93441 10.9989 6.95686C10.9989 7.40952 10.8178 7.77296 10.6963 7.96589L10.6928 7.97093L10.6444 8.03385L10.5815 8.11008L10.4887 8.22123C10.3019 8.406 9.86166 8.75618 9.20693 8.75618C8.21231 8.75618 7.40645 7.96363 7.40645 6.96296C7.40645 6.47073 7.61611 6.08921 7.73564 5.9117Z" fill="currentColor"/>
</svg>
