<svg width="21" height="21" viewBox="0 0 21 21" fill="none" xmlns="http://www.w3.org/2000/svg">
<path fill-rule="evenodd" clip-rule="evenodd" d="M13.125 7.875C13.125 9.32475 11.9497 10.5 10.5 10.5C9.05025 10.5 7.875 9.32475 7.875 7.875C7.875 6.42525 9.05025 5.25 10.5 5.25C11.9497 5.25 13.125 6.42525 13.125 7.875ZM11.375 7.875C11.375 8.35825 10.9832 8.75 10.5 8.75C10.0168 8.75 9.625 8.35825 9.625 7.875C9.625 7.39175 10.0168 7 10.5 7C10.9832 7 11.375 7.39175 11.375 7.875Z" fill="currentColor"/>
<path fill-rule="evenodd" clip-rule="evenodd" d="M16.625 7.875C16.625 11.0522 13.3946 15.6139 11.6259 17.8735C10.9591 18.7253 10.5 19.25 10.5 19.25C10.5 19.25 10.0409 18.7253 9.37413 17.8735C7.60536 15.6139 4.375 11.0522 4.375 7.875C4.375 4.49226 7.11726 1.75 10.5 1.75C13.8827 1.75 16.625 4.49226 16.625 7.875ZM14.875 7.875C14.875 8.60448 14.607 9.59557 14.0731 10.7778C13.5521 11.9313 12.8418 13.1293 12.1064 14.2324C11.5451 15.0743 10.9819 15.8422 10.5 16.4696C10.0181 15.8422 9.45485 15.0743 8.89359 14.2324C8.15821 13.1293 7.44789 11.9313 6.92693 10.7778C6.39303 9.59557 6.125 8.60448 6.125 7.875C6.125 5.45875 8.08375 3.5 10.5 3.5C12.9162 3.5 14.875 5.45875 14.875 7.875Z" fill="currentColor"/>
</svg>
