<svg width="18" height="18" viewBox="0 0 18 18" fill="none" xmlns="http://www.w3.org/2000/svg">
<path fill-rule="evenodd" clip-rule="evenodd" d="M9.74816 2.30291C9.74938 2.28543 9.75 2.26779 9.75 2.25C9.75 1.83579 9.41421 1.5 9 1.5C8.58579 1.5 8.25 1.83579 8.25 2.25C8.25 2.26779 8.25062 2.28543 8.25184 2.30291C5.70672 2.66604 3.75 4.85451 3.75 7.5V12.75H3C2.58579 12.75 2.25 13.0858 2.25 13.5C2.25 13.9142 2.58579 14.25 3 14.25H6.75C6.75 15.4926 7.75736 16.5 9 16.5C10.2426 16.5 11.25 15.4926 11.25 14.25H15C15.4142 14.25 15.75 13.9142 15.75 13.5C15.75 13.0858 15.4142 12.75 15 12.75H14.25V7.5C14.25 4.85451 12.2933 2.66604 9.74816 2.30291ZM12.75 7.5V12.75H5.25V7.5C5.25 5.42893 6.92893 3.75 9 3.75C11.0711 3.75 12.75 5.42893 12.75 7.5ZM9 15C8.58579 15 8.25 14.6642 8.25 14.25H9.75C9.75 14.6642 9.41421 15 9 15Z" fill="currentColor"/>
</svg>
