<svg width="50" height="11" viewBox="0 0 50 11" fill="none" xmlns="http://www.w3.org/2000/svg">
<g id="DEPth">
<path d="M0.581543 10.2065V0.582031H7.63712C10.1929 0.582031 11.7291 2.39823 11.7291 5.4014C11.7291 8.40456 10.1929 10.2065 7.63712 10.2065H0.581543ZM7.31085 2.06931H2.14492V8.71918H7.31085C9.09173 8.71918 10.2065 7.44641 10.2065 5.4014C10.2065 3.35639 9.09173 2.06931 7.31085 2.06931Z" fill="currentColor"/>
<path d="M13.2202 10.2065V0.582031H23.824V2.06931H14.7836V3.5423H23.688V5.02958H14.7836V8.71918H23.824V10.2065H13.2202Z" fill="currentColor"/>
<path d="M25.3146 10.3495V0.582031H34.4365C35.7008 0.582031 36.4621 1.41148 36.4621 2.79865C36.4621 4.18583 35.7008 5.02958 34.4365 5.02958H26.878V10.3495H25.3146ZM34.0287 2.06931H26.878V3.5423H34.0287C34.6269 3.5423 34.9395 3.31348 34.9395 2.79865C34.9395 2.28383 34.6133 2.06931 34.0287 2.06931Z" fill="currentColor"/>
<path d="M37.633 6.26672V5.18277H38.495V3.02529H39.6344V5.18277H41.6952V6.26672H39.6344V8.13237C39.6344 8.63265 39.8425 8.95575 40.4568 8.95575H41.7943V10.0397H40.3478C38.9706 10.0397 38.495 9.2997 38.495 8.17406V6.26672H37.633Z" fill="currentColor"/>
<path d="M45.0395 6.26672C44.4252 6.26672 44.019 6.58982 44.019 7.0901V10.0397H42.8795V3.02529H44.019V5.55798C44.2567 5.32868 44.5837 5.18277 44.9701 5.18277H47.566C48.9432 5.18277 49.4188 5.92277 49.4188 7.04841V10.0397H48.2793V7.0901C48.2793 6.58982 48.0713 6.26672 47.457 6.26672H45.0395Z" fill="currentColor"/>
</g>
</svg>
