<svg width="74" height="16" viewBox="0 0 74 16" fill="none" xmlns="http://www.w3.org/2000/svg">
<g id="&#235;&#160;&#136;&#236;&#157;&#180;&#236;&#150;&#180;_1">
<g id="Group">
<g id="Group_2">
<path id="Vector" d="M1.70692 11.5266C2.05822 11.84 2.43801 12.0868 2.86528 12.3147C3.27355 12.5426 3.71981 12.761 4.17555 12.9129C4.6408 13.0838 5.12503 13.1977 5.62825 13.2832C6.11248 13.3781 6.61571 13.4161 7.11893 13.3971C7.888 13.3971 8.53365 13.2452 9.02737 12.9508C9.51161 12.685 9.75847 12.2198 9.75847 11.6026C9.75847 10.9095 9.51161 10.3873 9.02737 10.017C8.52415 9.66566 7.81205 9.39981 6.86257 9.17193C5.8941 8.98204 5.04907 8.72568 4.30848 8.44084C3.55839 8.16549 2.94124 7.82368 2.43801 7.43439C1.93479 7.04511 1.54551 6.60835 1.29864 6.08614C1.03279 5.58292 0.909358 4.98475 0.909358 4.29163C0.909358 3.56053 1.06127 2.92439 1.3746 2.38318C1.68793 1.86097 2.08671 1.41472 2.62791 1.05392C3.15012 0.702612 3.74829 0.436759 4.44141 0.246864C5.11553 0.0949476 5.82764 0 6.60621 0C7.63165 0 8.6191 0.170906 9.54009 0.484233C10.4706 0.835539 11.3916 1.2723 12.3221 1.85148L11.1827 4.14921C10.5655 3.70296 9.85342 3.34215 9.07485 3.02883C8.28678 2.73449 7.48922 2.58257 6.72015 2.54459C6.38783 2.54459 6.06501 2.56358 5.75168 2.60156C5.40038 2.65853 5.11553 2.75348 4.85918 2.86742C4.59332 3.00034 4.35595 3.18074 4.20404 3.38963C4.03313 3.6175 3.95717 3.89285 3.95717 4.19668C3.95717 4.49102 3.99515 4.73788 4.0901 4.92778C4.16606 5.15565 4.33696 5.35504 4.57433 5.50696C4.80221 5.69685 5.11553 5.85826 5.50482 6.01018C5.8941 6.1621 6.37834 6.32351 6.9955 6.47542C8.05891 6.76027 8.97041 7.0546 9.72049 7.36793C10.4516 7.70025 11.0498 8.04206 11.515 8.43134C11.9613 8.83962 12.2841 9.27638 12.5025 9.7796C12.6923 10.2828 12.8158 10.881 12.8158 11.5361C12.8158 12.2672 12.6639 12.8844 12.3505 13.4256C12.0372 13.9668 11.6194 14.432 11.0972 14.8118C10.556 15.1821 9.93887 15.467 9.22676 15.6569C8.49567 15.8467 7.69811 15.9512 6.89105 15.9512C5.7137 15.9512 4.59332 15.7423 3.51092 15.353C2.40953 14.9447 1.42207 14.4415 0.539062 13.8244L1.71641 11.5266H1.70692Z" fill="white"/>
<path id="Vector_2" d="M13.3857 15.5627L18.9876 0.371094H22.3298L27.9317 15.5722H24.9029L23.1653 10.6824L17.6204 12.1921L16.4241 15.5722H13.3952L13.3857 15.5627ZM18.5509 9.61899L22.4153 8.57456L20.6587 3.66577L18.5509 9.60949V9.61899Z" fill="white"/>
<path id="Vector_3" d="M40.5029 6.62814V8.98284H32.5273V13.227H41.0631V15.5627H29.4795V0.371094H40.8732V2.72579H32.5273V6.62814H40.5029Z" fill="white"/>
<path id="Vector_4" d="M43.0847 0.371094H51.2312C51.8864 0.371094 52.4845 0.466041 53.0637 0.646442C53.6239 0.836337 54.1271 1.11168 54.5544 1.4535C54.9816 1.84278 55.3045 2.29853 55.5608 2.83973C55.7887 3.41891 55.9121 4.07405 55.9121 4.83363C55.9121 5.91603 55.6843 6.76107 55.238 7.35923C54.7728 7.97639 54.1366 8.44164 53.3485 8.74547L56.7287 15.5627H53.5764L50.5666 9.49555L46.142 10.54V15.5627H43.0942V0.371094H43.0847ZM52.8833 4.83363C52.8833 4.1595 52.6744 3.63729 52.2851 3.26699C51.8579 2.91569 51.3357 2.72579 50.6995 2.72579H46.142V7.99538L50.3672 7.12187C51.1743 6.98894 51.8009 6.71359 52.2377 6.3338C52.6649 5.96351 52.8738 5.46028 52.8738 4.82413L52.8833 4.83363Z" fill="white"/>
</g>
<g id="Group_3">
<g id="Group_4">
<path id="Vector_5" d="M64.686 13.0144C62.3598 12.4447 60.6318 10.3463 60.6318 7.84923C60.6318 5.35211 62.3598 3.25376 64.686 2.68408V0.167969C60.9451 0.813612 58.0872 4.07031 58.0872 8.00114C58.0872 11.932 60.9356 15.1887 64.686 15.8343V13.0239V13.0144Z" fill="#D5EBDE"/>
<path id="Vector_6" d="M67.4011 0.16938V2.73296C69.6419 3.35962 71.2845 5.41049 71.2845 7.85064C71.2845 10.2908 69.6419 12.3417 67.4011 12.9683V15.8167C71.1421 15.1711 74 11.9144 74 7.98356C74 4.05274 71.1516 0.796034 67.4011 0.150391V0.16938Z" fill="#D5EBDE"/>
</g>
<g id="Group_5">
<path id="Vector_7" d="M64.686 0.046875H58.0872V2.76238H64.686V0.046875Z" fill="#D5EBDE"/>
<path id="Vector_8" d="M74 13.2363H67.4011V15.9993H74V13.2363Z" fill="#D5EBDE"/>
</g>
</g>
</g>
</g>
</svg>
