<svg width="194" height="43" viewBox="0 0 194 43" fill="none" xmlns="http://www.w3.org/2000/svg">
<path d="M3.07499 30.35C3.99999 31.175 4.99998 31.825 6.12498 32.425C7.19997 33.025 8.37497 33.6 9.57497 34C10.8 34.45 12.075 34.75 13.4 34.975C14.6749 35.225 15.9999 35.325 17.3249 35.275C19.3499 35.275 21.0499 34.875 22.3499 34.1C23.6249 33.4 24.2749 32.175 24.2749 30.55C24.2749 28.725 23.6249 27.35 22.3499 26.375C21.0249 25.45 19.1499 24.75 16.6499 24.15C14.0999 23.65 11.875 22.975 9.92496 22.225C7.94997 21.5 6.32498 20.6 4.99998 19.575C3.67499 18.55 2.64999 17.4 1.99999 16.025C1.3 14.7 0.974997 13.125 0.974997 11.3C0.974997 9.37501 1.37499 7.70001 2.19999 6.27501C3.02499 4.9 4.07499 3.725 5.49998 2.775C6.87498 1.85 8.44997 1.15 10.275 0.650001C12.05 0.25 13.9249 0 15.9749 0C18.6749 0 21.2749 0.45 23.6999 1.275C26.1499 2.2 28.5749 3.35 31.0249 4.875L28.0249 10.925C26.3999 9.75001 24.5249 8.80001 22.4749 7.97501C20.3999 7.20001 18.2999 6.80001 16.2749 6.70001C15.3999 6.70001 14.5499 6.75001 13.7249 6.85001C12.8 7.00001 12.05 7.25001 11.375 7.55001C10.675 7.90001 10.05 8.37501 9.64996 8.92501C9.19997 9.52501 8.99997 10.25 8.99997 11.05C8.99997 11.825 9.09997 12.475 9.34997 12.975C9.54997 13.575 9.99996 14.1 10.625 14.5C11.225 15 12.05 15.425 13.075 15.825C14.0999 16.225 15.3749 16.65 16.9999 17.05C19.7999 17.8 22.1999 18.575 24.1749 19.4C26.0999 20.275 27.6749 21.175 28.8999 22.2C30.0749 23.275 30.9249 24.425 31.4999 25.75C31.9999 27.075 32.3249 28.65 32.3249 30.375C32.3249 32.3 31.9249 33.925 31.0999 35.35C30.2749 36.775 29.1749 38 27.7999 39C26.3749 39.975 24.7499 40.725 22.8749 41.225C20.9499 41.725 18.8499 42 16.7249 42C13.6249 42 10.675 41.45 7.82497 40.425C4.92498 39.35 2.32499 38.025 0 36.4L3.09999 30.35H3.07499Z" fill="#8DB9B6"/>
<path d="M33.8262 40.9766L48.5761 0.976562H57.3761L72.126 41.0016H64.1511L59.5761 28.1266L44.9761 32.1016L41.8261 41.0016H33.8512L33.8262 40.9766ZM47.4261 25.3266L57.6011 22.5766L52.9761 9.65157L47.4261 25.3016V25.3266Z" fill="#8DB9B6"/>
<path d="M105.226 17.4516V23.6516H84.2261V34.8266H106.701V40.9766H76.2012V0.976562H106.201V7.17657H84.2261V17.4516H105.226Z" fill="#8DB9B6"/>
<path d="M112.023 0.976562H133.473C135.198 0.976562 136.773 1.22656 138.298 1.70156C139.773 2.20156 141.098 2.92656 142.223 3.82656C143.348 4.85157 144.198 6.05157 144.873 7.47657C145.473 9.00157 145.798 10.7266 145.798 12.7266C145.798 15.5766 145.198 17.8016 144.023 19.3766C142.798 21.0016 141.123 22.2266 139.048 23.0266L147.948 40.9766H139.648L131.723 25.0016L120.073 27.7516V40.9766H112.048V0.976562H112.023ZM137.823 12.7266C137.823 10.9516 137.273 9.57657 136.248 8.60157C135.123 7.67657 133.748 7.17657 132.073 7.17657H120.073V21.0516L131.198 18.7516C133.323 18.4016 134.973 17.6766 136.123 16.6766C137.248 15.7016 137.798 14.3766 137.798 12.7016L137.823 12.7266Z" fill="#8DB9B6"/>
<path d="M168.9 34.2742C162.775 32.7742 158.225 27.2492 158.225 20.6742C158.225 14.0992 162.775 8.57422 168.9 7.07422V0.449219C159.05 2.14922 151.525 10.7242 151.525 21.0742C151.525 31.4242 159.025 39.9992 168.9 41.6992V34.2992V34.2742Z" fill="#D5EBDE"/>
<path d="M176.049 0.450391V7.2004C181.949 8.8504 186.274 14.2504 186.274 20.6754C186.274 27.1004 181.949 32.5004 176.049 34.1504V41.6504C185.899 39.9504 193.424 31.3754 193.424 21.0254C193.424 10.6754 185.924 2.10039 176.049 0.400391V0.450391Z" fill="#D5EBDE"/>
<path d="M168.9 0.126953H151.525V7.27696H168.9V0.126953Z" fill="#D5EBDE"/>
<path d="M193.424 34.8535H176.049V42.1285H193.424V34.8535Z" fill="#D5EBDE"/>
</svg>
