<svg width="358" height="34" viewBox="0 0 358 34" fill="none" xmlns="http://www.w3.org/2000/svg">
<path d="M137.286 8.76V29.688H134.406V8.76H137.286ZM132.966 9V28.488H130.086V19.224H128.598V16.344H130.086V9H132.966ZM119.406 9.384H128.982V12.024H119.406V9.384ZM120.51 23.424V13.344H123.39V23.28L124.302 23.184C124.622 21.76 124.822 20.32 124.902 18.864C124.982 17.408 125.022 15.568 125.022 13.344H127.902C127.902 15.36 127.87 17.064 127.806 18.456C127.742 19.832 127.59 21.216 127.35 22.608C128.23 22.368 128.966 22.136 129.558 21.912V24.72C127.734 25.312 126.022 25.688 124.422 25.848C122.838 25.992 121.038 26.064 119.022 26.064V23.424H120.51ZM156.976 8.76V29.688H154.096V20.064H151.312V20.328C151.312 22.456 150.864 24.152 149.968 25.416C149.088 26.68 147.728 27.312 145.888 27.312H145.648C143.808 27.312 142.44 26.68 141.544 25.416C140.664 24.152 140.224 22.456 140.224 20.328V16.368C140.224 14.24 140.664 12.544 141.544 11.28C142.44 10.016 143.808 9.384 145.648 9.384H145.888C147.728 9.384 149.088 10.016 149.968 11.28C150.864 12.544 151.312 14.24 151.312 16.368V17.184H154.096V8.76H156.976ZM143.104 20.328C143.104 21.832 143.312 22.936 143.728 23.64C144.144 24.328 144.784 24.672 145.648 24.672H145.888C146.752 24.672 147.392 24.328 147.808 23.64C148.224 22.936 148.432 21.832 148.432 20.328V16.368C148.432 14.864 148.224 13.768 147.808 13.08C147.392 12.376 146.752 12.024 145.888 12.024H145.648C144.784 12.024 144.144 12.376 143.728 13.08C143.312 13.768 143.104 14.864 143.104 16.368V20.328ZM177.132 8.76V29.688H174.252V8.76H177.132ZM159.924 16.8H166.98C167.636 16.8 168.116 16.616 168.42 16.248C168.724 15.88 168.876 15.416 168.876 14.856C168.876 14.44 168.804 14.04 168.66 13.656C168.516 13.256 168.34 12.952 168.132 12.744C167.556 12.168 166.788 11.88 165.828 11.88C164.66 11.88 163.236 12.328 161.556 13.224L160.164 10.92C162.18 9.816 164.1 9.264 165.924 9.264C167.7 9.264 169.124 9.8 170.196 10.872C170.676 11.368 171.052 11.968 171.324 12.672C171.596 13.376 171.732 14.096 171.732 14.832C171.732 15.648 171.556 16.408 171.204 17.112C170.868 17.816 170.34 18.384 169.62 18.816C168.916 19.232 168.036 19.44 166.98 19.44H164.1C163.796 19.968 163.556 20.464 163.38 20.928C163.204 21.376 163.116 21.816 163.116 22.248C163.116 22.872 163.332 23.392 163.764 23.808C164.244 24.272 164.996 24.504 166.02 24.504C166.916 24.504 167.948 24.328 169.116 23.976C170.284 23.624 171.42 23.16 172.524 22.584V25.56C171.468 26.024 170.364 26.4 169.212 26.688C168.076 26.976 166.996 27.12 165.972 27.12C164.132 27.12 162.724 26.64 161.748 25.68C160.74 24.688 160.236 23.544 160.236 22.248C160.236 21.384 160.46 20.448 160.908 19.44H159.924V16.8ZM199.208 8.76V29.688H196.328V8.76H199.208ZM194.888 9V28.488H192.008V20.424H190.04V18.096C189.272 18.992 188.208 19.44 186.848 19.44H184.568C184.024 20.592 183.752 21.536 183.752 22.272C183.752 22.912 183.936 23.448 184.304 23.88C184.672 24.296 185.256 24.504 186.056 24.504C186.824 24.504 187.704 24.328 188.696 23.976C189.688 23.608 190.656 23.128 191.6 22.536V25.608C190.704 26.072 189.76 26.44 188.768 26.712C187.792 26.984 186.856 27.12 185.96 27.12C184.296 27.12 183.024 26.616 182.144 25.608C181.296 24.648 180.872 23.528 180.872 22.248C180.872 21.384 181.064 20.448 181.448 19.44H180.8V16.8H186.848C187.344 16.8 187.704 16.624 187.928 16.272C188.152 15.904 188.264 15.448 188.264 14.904C188.264 14.472 188.2 14.048 188.072 13.632C187.96 13.216 187.808 12.896 187.616 12.672C187.168 12.144 186.576 11.88 185.84 11.88C184.896 11.88 183.736 12.312 182.36 13.176L180.824 10.968C182.6 9.832 184.312 9.264 185.96 9.264C187.576 9.264 188.864 9.824 189.824 10.944C190.24 11.44 190.56 12.032 190.784 12.72C191.024 13.392 191.144 14.08 191.144 14.784C191.144 15.824 190.904 16.744 190.424 17.544H192.008V9H194.888ZM218.897 8.76V29.688H216.017V8.76H218.897ZM209.561 27.192C209.993 26.6 210.393 25.864 210.761 24.984C211.129 24.088 211.313 23.256 211.313 22.488C211.313 21.512 210.977 20.8 210.305 20.352C210.129 22 209.641 23.344 208.841 24.384C208.041 25.408 206.849 25.976 205.265 26.088C204.449 26.136 203.737 25.992 203.129 25.656C202.537 25.32 202.081 24.856 201.761 24.264C201.441 23.672 201.281 23.024 201.281 22.32C201.281 21.568 201.465 20.84 201.833 20.136C202.201 19.432 202.761 18.832 203.513 18.336C204.281 17.824 205.217 17.488 206.321 17.328L207.497 17.208V9.384H210.377V17.376C211.705 17.68 212.657 18.28 213.233 19.176C213.809 20.056 214.097 21.112 214.097 22.344C214.097 23.192 213.985 24.048 213.761 24.912C213.537 25.76 213.257 26.52 212.921 27.192H209.561ZM205.073 23.448C205.841 23.4 206.409 23.08 206.777 22.488C207.161 21.896 207.393 21.016 207.473 19.848L206.705 19.92C205.857 20.048 205.217 20.352 204.785 20.832C204.369 21.296 204.161 21.8 204.161 22.344C204.161 22.68 204.241 22.952 204.401 23.16C204.577 23.368 204.801 23.464 205.073 23.448ZM239.054 8.76V29.688H236.174V8.76H239.054ZM222.47 9.384H234.23V12.024H222.47V9.384ZM224.15 23.424V13.344H227.03V23.304L228.782 23.184C229.182 21.76 229.43 20.328 229.526 18.888C229.622 17.432 229.67 15.584 229.67 13.344H232.55C232.55 15.376 232.51 17.096 232.43 18.504C232.35 19.912 232.15 21.328 231.83 22.752C233.014 22.512 234.142 22.24 235.214 21.936V24.696C232.974 25.304 230.838 25.688 228.806 25.848C226.79 25.992 224.518 26.064 221.99 26.064V23.424H224.15Z" fill="#1A2530"/>
</svg>
