<svg width="121" height="22" viewBox="0 0 121 22" fill="none" xmlns="http://www.w3.org/2000/svg">
<path d="M18.2861 0.759999V21.688H15.4061V0.759999H18.2861ZM13.9661 0.999999V20.488H11.0861V11.224H9.59813V8.344H11.0861V0.999999H13.9661ZM0.406125 1.384H9.98213V4.024H0.406125V1.384ZM1.51013 15.424V5.344H4.39013V15.28L5.30213 15.184C5.62213 13.76 5.82213 12.32 5.90213 10.864C5.98213 9.408 6.02213 7.568 6.02213 5.344H8.90213C8.90213 7.36 8.87013 9.064 8.80613 10.456C8.74213 11.832 8.59013 13.216 8.35013 14.608C9.23013 14.368 9.96613 14.136 10.5581 13.912V16.72C8.73413 17.312 7.02213 17.688 5.42213 17.848C3.83813 17.992 2.03813 18.064 0.022125 18.064V15.424H1.51013ZM37.9755 0.759999V21.688H35.0955V12.064H32.3115V12.328C32.3115 14.456 31.8635 16.152 30.9675 17.416C30.0875 18.68 28.7275 19.312 26.8875 19.312H26.6475C24.8075 19.312 23.4395 18.68 22.5435 17.416C21.6635 16.152 21.2235 14.456 21.2235 12.328V8.368C21.2235 6.24 21.6635 4.544 22.5435 3.28C23.4395 2.016 24.8075 1.384 26.6475 1.384H26.8875C28.7275 1.384 30.0875 2.016 30.9675 3.28C31.8635 4.544 32.3115 6.24 32.3115 8.368V9.184H35.0955V0.759999H37.9755ZM24.1035 12.328C24.1035 13.832 24.3115 14.936 24.7275 15.64C25.1435 16.328 25.7835 16.672 26.6475 16.672H26.8875C27.7515 16.672 28.3915 16.328 28.8075 15.64C29.2235 14.936 29.4315 13.832 29.4315 12.328V8.368C29.4315 6.864 29.2235 5.768 28.8075 5.08C28.3915 4.376 27.7515 4.024 26.8875 4.024H26.6475C25.7835 4.024 25.1435 4.376 24.7275 5.08C24.3115 5.768 24.1035 6.864 24.1035 8.368V12.328ZM58.1318 0.759999V21.688H55.2518V0.759999H58.1318ZM40.9238 8.8H47.9798C48.6358 8.8 49.1158 8.616 49.4198 8.248C49.7238 7.88 49.8758 7.416 49.8758 6.856C49.8758 6.44 49.8038 6.04 49.6598 5.656C49.5158 5.256 49.3398 4.952 49.1318 4.744C48.5558 4.168 47.7878 3.88 46.8278 3.88C45.6598 3.88 44.2358 4.328 42.5558 5.224L41.1638 2.92C43.1798 1.816 45.0998 1.264 46.9238 1.264C48.6998 1.264 50.1238 1.8 51.1958 2.872C51.6758 3.368 52.0518 3.968 52.3238 4.672C52.5958 5.376 52.7318 6.096 52.7318 6.832C52.7318 7.648 52.5558 8.408 52.2038 9.112C51.8678 9.816 51.3398 10.384 50.6198 10.816C49.9158 11.232 49.0358 11.44 47.9798 11.44H45.0998C44.7958 11.968 44.5558 12.464 44.3798 12.928C44.2038 13.376 44.1158 13.816 44.1158 14.248C44.1158 14.872 44.3318 15.392 44.7638 15.808C45.2438 16.272 45.9958 16.504 47.0198 16.504C47.9158 16.504 48.9478 16.328 50.1158 15.976C51.2838 15.624 52.4198 15.16 53.5238 14.584V17.56C52.4678 18.024 51.3638 18.4 50.2118 18.688C49.0758 18.976 47.9958 19.12 46.9718 19.12C45.1318 19.12 43.7238 18.64 42.7478 17.68C41.7398 16.688 41.2358 15.544 41.2358 14.248C41.2358 13.384 41.4598 12.448 41.9078 11.44H40.9238V8.8ZM80.208 0.759999V21.688H77.328V0.759999H80.208ZM75.888 0.999999V20.488H73.008V12.424H71.04V10.096C70.272 10.992 69.208 11.44 67.848 11.44H65.568C65.024 12.592 64.752 13.536 64.752 14.272C64.752 14.912 64.936 15.448 65.304 15.88C65.672 16.296 66.256 16.504 67.056 16.504C67.824 16.504 68.704 16.328 69.696 15.976C70.688 15.608 71.656 15.128 72.6 14.536V17.608C71.704 18.072 70.76 18.44 69.768 18.712C68.792 18.984 67.856 19.12 66.96 19.12C65.296 19.12 64.024 18.616 63.144 17.608C62.296 16.648 61.872 15.528 61.872 14.248C61.872 13.384 62.064 12.448 62.448 11.44H61.8V8.8H67.848C68.344 8.8 68.704 8.624 68.928 8.272C69.152 7.904 69.264 7.448 69.264 6.904C69.264 6.472 69.2 6.048 69.072 5.632C68.96 5.216 68.808 4.896 68.616 4.672C68.168 4.144 67.576 3.88 66.84 3.88C65.896 3.88 64.736 4.312 63.36 5.176L61.824 2.968C63.6 1.832 65.312 1.264 66.96 1.264C68.576 1.264 69.864 1.824 70.824 2.944C71.24 3.44 71.56 4.032 71.784 4.72C72.024 5.392 72.144 6.08 72.144 6.784C72.144 7.824 71.904 8.744 71.424 9.544H73.008V0.999999H75.888ZM99.8974 0.759999V21.688H97.0174V0.759999H99.8974ZM90.5614 19.192C90.9934 18.6 91.3934 17.864 91.7614 16.984C92.1294 16.088 92.3134 15.256 92.3134 14.488C92.3134 13.512 91.9774 12.8 91.3054 12.352C91.1294 14 90.6414 15.344 89.8414 16.384C89.0414 17.408 87.8494 17.976 86.2654 18.088C85.4494 18.136 84.7374 17.992 84.1294 17.656C83.5374 17.32 83.0814 16.856 82.7614 16.264C82.4414 15.672 82.2814 15.024 82.2814 14.32C82.2814 13.568 82.4654 12.84 82.8334 12.136C83.2014 11.432 83.7614 10.832 84.5134 10.336C85.2814 9.824 86.2174 9.488 87.3214 9.328L88.4974 9.208V1.384H91.3774V9.376C92.7054 9.68 93.6574 10.28 94.2334 11.176C94.8094 12.056 95.0974 13.112 95.0974 14.344C95.0974 15.192 94.9854 16.048 94.7614 16.912C94.5374 17.76 94.2574 18.52 93.9214 19.192H90.5614ZM86.0734 15.448C86.8414 15.4 87.4094 15.08 87.7774 14.488C88.1614 13.896 88.3934 13.016 88.4734 11.848L87.7054 11.92C86.8574 12.048 86.2174 12.352 85.7854 12.832C85.3694 13.296 85.1614 13.8 85.1614 14.344C85.1614 14.68 85.2414 14.952 85.4014 15.16C85.5774 15.368 85.8014 15.464 86.0734 15.448ZM120.054 0.759999V21.688H117.174V0.759999H120.054ZM103.47 1.384H115.23V4.024H103.47V1.384ZM105.15 15.424V5.344H108.03V15.304L109.782 15.184C110.182 13.76 110.43 12.328 110.526 10.888C110.622 9.432 110.67 7.584 110.67 5.344H113.55C113.55 7.376 113.51 9.096 113.43 10.504C113.35 11.912 113.15 13.328 112.83 14.752C114.014 14.512 115.142 14.24 116.214 13.936V16.696C113.974 17.304 111.838 17.688 109.806 17.848C107.79 17.992 105.518 18.064 102.99 18.064V15.424H105.15Z" fill="#1A2530"/>
</svg>
