<svg width="24" height="24" viewBox="0 0 24 24" fill="none" xmlns="http://www.w3.org/2000/svg">
<path d="M11.9995 2C7.09549 1.99935 2.91504 5.64728 2.12988 10.6124C1.34471 15.5775 4.18666 20.3937 8.83945 21.983C9.34056 22.0755 9.51996 21.7599 9.51996 21.4886C9.51996 21.2449 9.51195 20.5993 9.50894 19.741C6.72774 20.3578 6.14042 18.3655 6.14042 18.3655C5.95733 17.7456 5.56372 17.2135 5.03095 16.8657C4.12894 16.2294 5.1001 16.2438 5.1001 16.2438C5.74221 16.3341 6.30735 16.7243 6.63052 17.3005C6.90406 17.8107 7.36492 18.1876 7.91068 18.3477C8.45644 18.5077 9.04191 18.4375 9.537 18.1527C9.58353 17.6326 9.80915 17.1464 10.1734 16.7814C7.95447 16.5234 5.62127 15.6434 5.62127 11.7134C5.60895 10.697 5.97696 9.71431 6.64956 8.96769C6.34523 8.08291 6.38107 7.11243 6.74978 6.2538C6.74978 6.2538 7.58866 5.97728 9.49792 7.30338C11.1354 6.84285 12.8636 6.84285 14.5011 7.30338C16.4113 5.97625 17.2492 6.2538 17.2492 6.2538C17.6196 7.11203 17.6555 8.08318 17.3494 8.96769C18.0245 9.71424 18.3922 10.6995 18.3757 11.7175C18.3757 15.6578 16.0405 16.5234 13.8135 16.7773C14.2939 17.2811 14.5403 17.9722 14.4901 18.675C14.4901 20.0463 14.478 21.1524 14.478 21.4886C14.478 21.763 14.6564 22.0817 15.1666 21.981C19.8174 20.389 22.6563 15.5725 21.8695 10.6087C21.0828 5.64488 16.9025 1.99885 11.9995 2Z" fill="currentColor"/>
</svg>
