<svg width="24" height="24" viewBox="0 0 24 24" fill="none" xmlns="http://www.w3.org/2000/svg">
<path d="M6.34285 3.5154C7.51442 2.34383 9.41392 2.34383 10.5855 3.5154L14.121 7.05093C14.5115 7.44146 14.5115 8.07462 14.121 8.46515C13.7305 8.85567 13.0973 8.85567 12.7068 8.46515L9.17128 4.92961C8.78075 4.53909 8.14759 4.53909 7.75706 4.92961L4.92864 7.75804C4.53811 8.14856 4.53811 8.78173 4.92864 9.17225L8.46417 12.7078C8.85469 13.0983 8.85469 13.7315 8.46417 14.122C8.07365 14.5125 7.44048 14.5125 7.04996 14.122L3.51442 10.5865C2.34285 9.41489 2.34285 7.5154 3.51442 6.34383L6.34285 3.5154Z" fill="currentColor"/>
<path d="M15.5352 9.87936C15.9258 9.48883 16.5589 9.48883 16.9495 9.87936L20.485 13.4149C21.6566 14.5865 21.6566 16.486 20.485 17.6575L17.6566 20.486C16.485 21.6575 14.5855 21.6575 13.4139 20.486L9.87838 16.9504C9.48786 16.5599 9.48786 15.9267 9.87838 15.5362C10.2689 15.1457 10.9021 15.1457 11.2926 15.5362L14.8281 19.0717C15.2187 19.4623 15.8518 19.4623 16.2423 19.0717L19.0708 16.2433C19.4613 15.8528 19.4613 15.2196 19.0708 14.8291L15.5352 11.2936C15.1447 10.903 15.1447 10.2699 15.5352 9.87936Z" fill="currentColor"/>
<path d="M9.52483 8.11159C9.13431 7.72107 8.50114 7.72107 8.11062 8.11159C7.72009 8.50212 7.72009 9.13528 8.11062 9.52581L14.4746 15.8898C14.8651 16.2803 15.4983 16.2803 15.8888 15.8898C16.2793 15.4992 16.2793 14.8661 15.8888 14.4756L9.52483 8.11159Z" fill="currentColor"/>
</svg>
