<svg width="24" height="24" viewBox="0 0 24 24" fill="none" xmlns="http://www.w3.org/2000/svg">
<path fill-rule="evenodd" clip-rule="evenodd" d="M7.2352 3H16.7648C17.4966 2.99999 18.1006 2.99998 18.5926 3.04018C19.1035 3.08193 19.5733 3.17153 20.0145 3.39634C20.6987 3.74497 21.255 4.30126 21.6036 4.98548C21.8206 5.41124 21.9116 5.86356 21.9552 6.35388C22.0035 6.50176 22.0124 6.65859 21.9835 6.80882C22 7.21799 22 7.69126 22 8.23515V15.0375C22 15.7693 22 16.3733 21.9598 16.8653C21.9181 17.3763 21.8284 17.846 21.6036 18.2872C21.255 18.9714 20.6987 19.5277 20.0145 19.8763C19.5733 20.1012 19.1035 20.1908 18.5926 20.2325C18.1006 20.2727 17.4966 20.2727 16.7648 20.2727H7.23517C6.50339 20.2727 5.89944 20.2727 5.40745 20.2325C4.89645 20.1908 4.42672 20.1012 3.98551 19.8763C3.30129 19.5277 2.74499 18.9714 2.39636 18.2872C2.17156 17.846 2.08195 17.3763 2.0402 16.8653C2 16.3733 2.00001 15.7693 2.00003 15.0375V8.23517C2.00002 7.69128 2.00001 7.218 2.01651 6.80882C1.98757 6.65859 1.99648 6.50175 2.04477 6.35388C2.08839 5.86356 2.17943 5.41124 2.39636 4.98548C2.74499 4.30126 3.30129 3.74497 3.98551 3.39634C4.42672 3.17153 4.89645 3.08193 5.40745 3.04018C5.89944 2.99998 6.50341 2.99999 7.2352 3ZM3.8182 8.56113V15C3.8182 15.7787 3.81891 16.308 3.85234 16.7172C3.8849 17.1158 3.94393 17.3196 4.01637 17.4618C4.19069 17.8039 4.46883 18.082 4.81095 18.2563C4.95313 18.3288 5.15695 18.3878 5.55551 18.4204C5.96468 18.4538 6.49403 18.4545 7.27274 18.4545H16.7273C17.506 18.4545 18.0353 18.4538 18.4445 18.4204C18.8431 18.3878 19.0469 18.3288 19.1891 18.2563C19.5312 18.082 19.8093 17.8039 19.9836 17.4618C20.0561 17.3196 20.1151 17.1158 20.1477 16.7172C20.1811 16.308 20.1818 15.7787 20.1818 15V8.56113L14.2457 13.4434C14.2276 13.4583 14.2088 13.4726 14.1896 13.486C14.1543 13.5107 14.1194 13.5353 14.0847 13.5596C13.5896 13.9073 13.1548 14.2126 12.6596 14.336C12.2265 14.444 11.7735 14.444 11.3404 14.336C10.8452 14.2126 10.4104 13.9073 9.91528 13.5596C9.88064 13.5353 9.8457 13.5107 9.81042 13.486C9.79116 13.4726 9.77243 13.4583 9.75428 13.4434L3.8182 8.56113ZM20.1142 6.26257C20.0809 6.0472 20.0357 5.91313 19.9836 5.81092C19.8093 5.46881 19.5312 5.19066 19.1891 5.01635C19.0469 4.9439 18.8431 4.88488 18.4445 4.85232C18.0353 4.81889 17.506 4.81818 16.7273 4.81818H7.27274C6.49403 4.81818 5.96468 4.81888 5.55551 4.85232C5.15695 4.88488 4.95313 4.9439 4.81095 5.01635C4.46883 5.19066 4.19069 5.46881 4.01637 5.81092C3.96429 5.91313 3.91915 6.0472 3.88579 6.26257L10.8819 12.0167C11.5199 12.4628 11.658 12.5413 11.7801 12.5718C11.9245 12.6078 12.0755 12.6078 12.2199 12.5718C12.342 12.5413 12.4801 12.4628 13.1181 12.0167L20.1142 6.26257Z" fill="currentColor"/>
</svg>
